<svg xmlns="http://www.w3.org/2000/svg" width="190" height="185.313" viewBox="0 0 190 185.313">
  <path id="Path_2299" data-name="Path 2299" d="M95,0A95,95,0,0,0,64.956,185.131c4.75.832,6.531-2.018,6.531-4.512,0-2.256-.119-9.738-.119-17.694-23.869,4.394-30.044-5.819-31.944-11.163-1.069-2.731-5.7-11.162-9.737-13.418-3.325-1.782-8.075-6.175-.119-6.294,7.481-.119,12.825,6.887,14.606,9.737,8.55,14.369,22.206,10.332,27.669,7.838.831-6.175,3.325-10.331,6.056-12.706-21.138-2.375-43.225-10.569-43.225-46.907a36.972,36.972,0,0,1,9.737-25.531c-.95-2.375-4.275-12.113.95-25.175,0,0,7.956-2.494,26.125,9.738a89.567,89.567,0,0,1,47.5,0c18.168-12.35,26.125-9.738,26.125-9.738,5.225,13.063,1.9,22.8.95,25.175A36.758,36.758,0,0,1,155.8,90.012c0,36.457-22.206,44.532-43.344,46.907,3.444,2.968,6.413,8.669,6.413,17.575,0,12.706-.119,22.919-.119,26.125,0,2.494,1.781,5.462,6.531,4.512A95.05,95.05,0,0,0,95,0Z" fill="#fff" fill-rule="evenodd"/>
</svg>
