<svg xmlns="http://www.w3.org/2000/svg" xmlns:xlink="http://www.w3.org/1999/xlink" width="689" height="836" viewBox="0 0 689 836">
  <defs>
    <pattern id="pattern" width="1" height="1" viewBox="140.684 11.161 194.803 518.208">
     
    </pattern>
  </defs>
  <g id="Group_48" data-name="Group 48" transform="translate(-100 -150)">
    <g id="Group_46" data-name="Group 46" transform="translate(3 -3)">
      <g id="Group_45" data-name="Group 45" transform="translate(-2892 6546)">
        <g id="Group_44" data-name="Group 44" transform="translate(5 17)">
          <g id="Rectangle_78" data-name="Rectangle 78" transform="translate(2984 -6410)" stroke="#707070" stroke-width="1">
            <rect width="689" height="836" stroke="none"/>
            <rect x="0.5" y="0.5" width="688" height="835" fill="none"/>
          </g>
        </g>
      </g>
    </g>
    <g id="Group_47" data-name="Group 47" transform="translate(275 225.047)">
      <path id="Path_36" data-name="Path 36" d="M301.228,354.322h2.824v-100.4H161.274v100.4h20.918v1.628c0,17.688-2.332,29.992-6.595,37.38l0,0c-3.82,6.641-9.914,10.031-18.857,10.031-8.919,0-15.167-3.377-19.246-10.034-4.017-7.414-6.209-19.728-6.209-37.38V170.258c0-17.719,2.21-29.794,6.208-36.745,4.11-7.123,10.374-10.669,19.246-10.669a22.506,22.506,0,0,1,11.293,2.652,19.605,19.605,0,0,1,7.532,7.957l.032.059.035.059c4.222,6.93,6.561,18.976,6.561,36.686V202.97H284.683v-156l-.851-.831C272.616,35.179,256.1,25.469,234.477,16.917A188.563,188.563,0,0,0,164.485,4C112.964,4,73.074,24.788,45.155,66.3l0,.005,0,.005C17.558,107.718,4,173.491,4,263.1c0,87.524,13.7,152.843,41.52,195.5l0,.006,0,.006q41.817,63.467,115.859,63.591,38.419,0,71.485-12.259l.017-.006.018-.007c22.132-8.549,39.154-18.248,50.88-29.186l.9-.837V354.322Z" fill="#29bd1c" stroke="#29bd1c" stroke-width="8"/>
      <path id="Path_37" data-name="Path 37" d="M301.228,354.322h2.824v-100.4H161.274v100.4h20.918v1.628c0,17.688-2.332,29.992-6.595,37.38l0,0c-3.82,6.641-9.914,10.031-18.857,10.031-8.919,0-15.167-3.377-19.246-10.034-4.017-7.414-6.209-19.728-6.209-37.38V170.258c0-17.719,2.21-29.794,6.208-36.745,4.11-7.123,10.374-10.669,19.246-10.669a22.506,22.506,0,0,1,11.293,2.652,19.605,19.605,0,0,1,7.532,7.957l.032.059.035.059c4.222,6.93,6.561,18.976,6.561,36.686V202.97H284.683v-156l-.851-.831C272.616,35.179,256.1,25.469,234.477,16.917A188.563,188.563,0,0,0,164.485,4C112.964,4,73.074,24.788,45.155,66.3l0,.005,0,.005C17.558,107.718,4,173.491,4,263.1c0,87.524,13.7,152.843,41.52,195.5l0,.006,0,.006q41.817,63.467,115.859,63.591,38.419,0,71.485-12.259l.017-.006.018-.007c22.132-8.549,39.154-18.248,50.88-29.186l.9-.837V354.322Z" stroke="#29bd1c" stroke-width="8" fill="url(#pattern)"/>
    </g>
  </g>
</svg>
