<svg id="Group_42" data-name="Group 42" xmlns="http://www.w3.org/2000/svg" width="904.825" height="584.804" viewBox="0 0 904.825 584.804">
  <path id="Path_23" data-name="Path 23" d="M540.631,360.485c1.575,0,1.575-18.89,0-18.89H287.978c-.788,0-.788,18.89,0,18.89h66.9c2.362,0,3.148.787,3.148,2.362V499.012c0,43.289-18.89,67.688-86.579,67.688-33.845,0-56.671-6.3-75.561-29.122-33.057-36.206-34.631-103.9-34.631-244.783,0-131.443,11.019-209.364,43.289-245.57,20.464-21.251,43.289-28.335,76.347-28.335,77.135,0,132.231,103.109,132.231,181.03,0,1.574,18.89,1.574,18.89,0V2.361c0-1.574-17.316-1.574-18.89,0-.787,8.658-14.954,18.89-36.993,18.89C361.176,21.251,319.461,0,280.893,0,140.006,0,37.685,136.166,37.685,292.8c0,151.121,88.153,292.009,233.764,292.009,84.218,0,122.784-36.206,156.63-36.206,21.251,0,24.4,5.51,23.612,25.187,0,2.36,18.89,2.36,18.89.787V362.846q0-2.362,4.722-2.362Z" transform="translate(363.013)" fill="#fff"/>
  <path id="Path_24" data-name="Path 24" d="M105.527,82.917c0-33.658-23.7-60.963-52.892-60.963H.258c-.343,0-.343,4.121,0,4.121H14.683c.515,0,.859.172.859.687V138.9c0,.515-.343.687-.859.687H.258c-.343,0-.343,4.121,0,4.121H52.634C81.828,143.709,105.527,116.4,105.527,82.917Zm-26.961,0c0,31.255-2.232,43.276-9.445,50.832-4.465,4.636-9.273,5.838-16.486,5.838H40.957c-.515,0-.859-.172-.859-.343V26.762c0-.515.343-.687.859-.687H52.634c7.213,0,12.021,1.546,16.486,6.011C76.333,39.642,78.565,55.613,78.565,82.917Z" transform="translate(0 211.48)" fill="#fff"/>
  <path id="Path_25" data-name="Path 25" d="M87.505,64.5a38.3,38.3,0,0,0-38.3-38.124C28.6,26.379,11.43,43.553,11.43,64.5S28.6,102.627,49.21,102.627A38.3,38.3,0,0,0,87.505,64.5Zm-21.294,0c0,18.718-1.717,25.93-6.182,30.4C57.282,97.818,53.675,98.5,49.21,98.5c-3.95,0-7.557-.687-10.475-3.606-4.294-4.466-6.011-11.678-6.011-30.4,0-16.314,1.717-25.931,6.011-30.4C41.654,31.188,45.26,30.5,49.21,30.5c4.465,0,8.071.687,10.819,3.607C64.494,38.572,66.211,48.19,66.211,64.5Z" transform="translate(110.101 254.108)" fill="#fff"/>
  <path id="Path_26" data-name="Path 26" d="M113.3,99.681c.343,0,.343-4.121,0-4.121h-9.96c-.859,0-1.2-.172-1.2-.687V27.04a.455.455,0,0,0-.515-.515H70.709c-.687,0-.687,4.121,0,4.121H80.5c1.03,0,1.2.171,1.2.687V79.417c-4.121,12.88-9.961,17.86-20.78,17.86-6.01,0-9.444-5.324-9.444-17.688V27.04a.455.455,0,0,0-.516-.515H19.707a16.5,16.5,0,0,0,0,4.121H29.839c1.03,0,1.374.171,1.374.687V73.749c0,18.2,11.506,27.477,29.708,27.477,8.415,0,17.516-3.779,20.78-13.4V99.165c0,.343.343.516.687.516Z" transform="translate(188.59 255.509)" fill="#fff"/>
  <path id="Path_27" data-name="Path 27" d="M115.731,111.691c0-19.061-17-38.639-37.952-38.639a22.1,22.1,0,0,0-16.83,7.041V22.05c0-.172,0-.516-.515-.516H29.353c-.343,0-.343,4.121,0,4.121H39.828c.516,0,1.03.172,1.03.687v116.6c0,.515-.515.687-1.03.687H29.353c-.343,0-.343,4.121,0,4.121H60.436c.515,0,.515-.172.515-.516v-6.7c4.122,4.465,12.88,8.758,20.093,8.758C101.994,149.3,115.731,130.581,115.731,111.691Zm-21.465,0c0,16.143-1.03,25.588-5.838,30.053-2.92,2.747-2.749,3.434-7.384,3.434-7.041,0-16.486-3.778-20.093-12.02V87.306c1.546-6.353,10.3-10.132,16.83-10.132,4.808,0,7.728.859,10.648,3.435C93.236,85.074,94.266,95.72,94.266,111.691Z" transform="translate(280.268 207.436)" fill="#fff"/>
  <path id="Path_28" data-name="Path 28" d="M80.488,147.754c.687,0,.687-4.121,0-4.121h-9.96c-.516,0-.859-.172-.859-.687V22.05a.766.766,0,0,0-.687-.516H38.072c-.516,0-.516,4.121,0,4.121H48.2c.858,0,1.2.172,1.2.687v116.6c0,.515-.343.687-1.2.687H38.072c-.516,0-.516,4.121,0,4.121Z" transform="translate(363.012 207.436)"/>
  <path id="Path_29" data-name="Path 29" d="M115.572,60.21c0-11.677-11.162-33.83-33.83-33.83-20.951,0-38.982,17.173-38.982,38.124s18.031,38.124,38.982,38.124c12.707,0,25.243-6.526,31.941-16.315.172-.343-2.232-2.4-2.4-2.232C105.1,92.5,94.621,98.5,81.741,98.5c-4.808,0-8.071-.687-10.819-3.606-4.808-4.466-6.7-11.678-6.7-30.4V60.726h50.831A.456.456,0,0,0,115.572,60.21ZM97.025,56.6h-32.8c.172-13.739,2.4-18.547,6.7-22.5,2.748-2.92,6.011-3.607,10.819-3.607,3.95,0,7.041.687,9.445,3.607C94.792,38.058,96.854,42.866,97.025,56.6Z" transform="translate(411.891 254.108)"/>
</svg>
